<svg width="112" height="77" viewBox="0 0 112 77" fill="none" xmlns="http://www.w3.org/2000/svg">
<path fill-rule="evenodd" clip-rule="evenodd" d="M1.05922 44C-0.266764 44 0.0278966 40.1364 0.0278966 39.8392C2.61178 25.5056 8.74386 12.0626 17.855 0.757847C21.0963 -1.17393 23.8956 0.757847 24.6323 4.62141C25.369 8.48497 25.369 10.5653 25.6636 12.9429C26.8423 19.7785 28.7576 30.1803 36.8608 31.5177C46.1231 31.097 55.2663 29.2427 63.9699 26.0196C78.7855 21.0757 94.9146 22.0326 109.053 28.6944C110.184 29.2785 111.187 30.0873 112 31.0719L108.464 30.1803C95.6486 25.8747 81.7946 25.8747 68.9791 30.1803C59.3972 33.7194 49.5415 36.453 39.5128 38.3533C21.9803 39.6907 19.3284 21.413 18.5917 8.63357C18.6724 8.09175 18.6724 7.5408 18.5917 6.99898C16.9389 9.03097 15.4135 11.165 14.0244 13.3887C8.13925 22.8443 3.76413 33.1741 1.05922 44Z" fill="#0C66E4"/>
<path d="M18.096 70.36C16.368 70.36 14.876 69.984 13.62 69.232C12.372 68.48 11.408 67.428 10.728 66.076C10.056 64.724 9.72 63.152 9.72 61.36C9.72 59.568 10.056 57.996 10.728 56.644C11.408 55.292 12.372 54.24 13.62 53.488C14.876 52.736 16.368 52.36 18.096 52.36C19.824 52.36 21.312 52.736 22.56 53.488C23.816 54.24 24.78 55.292 25.452 56.644C26.132 57.996 26.472 59.568 26.472 61.36C26.472 63.152 26.132 64.724 25.452 66.076C24.78 67.428 23.816 68.48 22.56 69.232C21.312 69.984 19.824 70.36 18.096 70.36ZM18.096 67.288C19.192 67.304 20.104 67.068 20.832 66.58C21.56 66.092 22.104 65.4 22.464 64.504C22.832 63.608 23.016 62.56 23.016 61.36C23.016 60.16 22.832 59.12 22.464 58.24C22.104 57.36 21.56 56.676 20.832 56.188C20.104 55.7 19.192 55.448 18.096 55.432C17 55.416 16.088 55.652 15.36 56.14C14.632 56.628 14.084 57.32 13.716 58.216C13.356 59.112 13.176 60.16 13.176 61.36C13.176 62.56 13.356 63.6 13.716 64.48C14.084 65.36 14.632 66.044 15.36 66.532C16.088 67.02 17 67.272 18.096 67.288ZM33.6915 70.384C32.6755 70.384 31.8475 70.212 31.2075 69.868C30.5675 69.524 30.0675 69.088 29.7075 68.56C29.3555 68.032 29.1035 67.484 28.9515 66.916C28.7995 66.34 28.7075 65.816 28.6755 65.344C28.6435 64.872 28.6275 64.528 28.6275 64.312V57.04H31.9395V63.16C31.9395 63.456 31.9555 63.836 31.9875 64.3C32.0195 64.756 32.1195 65.216 32.2875 65.68C32.4555 66.144 32.7275 66.532 33.1035 66.844C33.4875 67.156 34.0275 67.312 34.7235 67.312C35.0035 67.312 35.3035 67.268 35.6235 67.18C35.9435 67.092 36.2435 66.924 36.5235 66.676C36.8035 66.42 37.0315 66.048 37.2075 65.56C37.3915 65.064 37.4835 64.416 37.4835 63.616L39.3555 64.504C39.3555 65.528 39.1475 66.488 38.7315 67.384C38.3155 68.28 37.6875 69.004 36.8475 69.556C36.0155 70.108 34.9635 70.384 33.6915 70.384ZM37.8915 70V65.704H37.4835V57.04H40.7715V70H37.8915ZM51.9013 70C51.0053 70.168 50.1253 70.24 49.2613 70.216C48.4053 70.2 47.6373 70.052 46.9573 69.772C46.2853 69.484 45.7733 69.024 45.4213 68.392C45.1013 67.8 44.9333 67.2 44.9173 66.592C44.9013 65.976 44.8933 65.28 44.8933 64.504V53.44H48.1573V64.312C48.1573 64.816 48.1613 65.272 48.1693 65.68C48.1853 66.08 48.2693 66.4 48.4213 66.64C48.7093 67.096 49.1693 67.344 49.8013 67.384C50.4333 67.424 51.1333 67.392 51.9013 67.288V70ZM42.6853 59.56V57.04H51.9013V59.56H42.6853ZM59.8534 70.36C58.2214 70.36 56.9014 69.992 55.8934 69.256C54.8934 68.512 54.2854 67.464 54.0694 66.112L57.4054 65.608C57.5414 66.216 57.8414 66.692 58.3054 67.036C58.7774 67.38 59.3734 67.552 60.0934 67.552C60.6854 67.552 61.1414 67.44 61.4614 67.216C61.7814 66.984 61.9414 66.664 61.9414 66.256C61.9414 66 61.8774 65.796 61.7494 65.644C61.6214 65.484 61.3334 65.328 60.8854 65.176C60.4454 65.024 59.7574 64.824 58.8214 64.576C57.7654 64.304 56.9214 64 56.2894 63.664C55.6574 63.328 55.2014 62.928 54.9214 62.464C54.6414 61.992 54.5014 61.424 54.5014 60.76C54.5014 59.928 54.7134 59.208 55.1374 58.6C55.5614 57.984 56.1574 57.512 56.9254 57.184C57.7014 56.848 58.6134 56.68 59.6614 56.68C60.6774 56.68 61.5774 56.836 62.3614 57.148C63.1454 57.46 63.7774 57.904 64.2574 58.48C64.7454 59.056 65.0454 59.736 65.1574 60.52L61.8214 61.12C61.7654 60.64 61.5574 60.26 61.1974 59.98C60.8374 59.7 60.3494 59.536 59.7334 59.488C59.1334 59.448 58.6494 59.528 58.2814 59.728C57.9214 59.928 57.7414 60.216 57.7414 60.592C57.7414 60.816 57.8174 61.004 57.9694 61.156C58.1294 61.308 58.4534 61.464 58.9414 61.624C59.4374 61.784 60.1894 61.992 61.1974 62.248C62.1814 62.504 62.9694 62.804 63.5614 63.148C64.1614 63.484 64.5974 63.892 64.8694 64.372C65.1414 64.844 65.2774 65.416 65.2774 66.088C65.2774 67.416 64.7974 68.46 63.8374 69.22C62.8774 69.98 61.5494 70.36 59.8534 70.36ZM68.1544 55.24V52.36H71.4184V55.24H68.1544ZM68.1544 70V57.04H71.4184V70H68.1544ZM80.2719 70.36C79.0799 70.36 78.0359 70.06 77.1399 69.46C76.2439 68.86 75.5439 68.044 75.0399 67.012C74.5439 65.98 74.2959 64.816 74.2959 63.52C74.2959 62.2 74.5479 61.028 75.0519 60.004C75.5639 58.972 76.2799 58.16 77.1999 57.568C78.1199 56.976 79.1999 56.68 80.4399 56.68C81.6719 56.68 82.7079 56.98 83.5479 57.58C84.3879 58.18 85.0239 58.996 85.4559 60.028C85.8879 61.06 86.1039 62.224 86.1039 63.52C86.1039 64.816 85.8839 65.98 85.4439 67.012C85.0119 68.044 84.3639 68.86 83.4999 69.46C82.6359 70.06 81.5599 70.36 80.2719 70.36ZM80.7999 67.456C81.5279 67.456 82.1079 67.292 82.5399 66.964C82.9799 66.636 83.2959 66.176 83.4879 65.584C83.6799 64.992 83.7759 64.304 83.7759 63.52C83.7759 62.736 83.6799 62.048 83.4879 61.456C83.2959 60.864 82.9879 60.404 82.5639 60.076C82.1479 59.748 81.5999 59.584 80.9199 59.584C80.1919 59.584 79.5919 59.764 79.1199 60.124C78.6559 60.476 78.3119 60.952 78.0879 61.552C77.8639 62.144 77.7519 62.8 77.7519 63.52C77.7519 64.248 77.8599 64.912 78.0759 65.512C78.2919 66.104 78.6239 66.576 79.0719 66.928C79.5199 67.28 80.0959 67.456 80.7999 67.456ZM83.7759 70V61.12H83.3679V52.72H86.6559V70H83.7759ZM96.0399 70.36C94.7119 70.36 93.5399 70.076 92.5239 69.508C91.5159 68.932 90.7239 68.144 90.1479 67.144C89.5799 66.136 89.2959 64.984 89.2959 63.688C89.2959 62.272 89.5759 61.04 90.1359 59.992C90.6959 58.944 91.4679 58.132 92.4519 57.556C93.4359 56.972 94.5679 56.68 95.8479 56.68C97.2079 56.68 98.3639 57 99.3159 57.64C100.268 58.28 100.972 59.18 101.428 60.34C101.884 61.5 102.044 62.864 101.908 64.432H98.6799V63.232C98.6799 61.912 98.4679 60.964 98.0439 60.388C97.6279 59.804 96.9439 59.512 95.9919 59.512C94.8799 59.512 94.0599 59.852 93.5319 60.532C93.0119 61.204 92.7519 62.2 92.7519 63.52C92.7519 64.728 93.0119 65.664 93.5319 66.328C94.0599 66.984 94.8319 67.312 95.8479 67.312C96.4879 67.312 97.0359 67.172 97.4919 66.892C97.9479 66.612 98.2959 66.208 98.5359 65.68L101.8 66.616C101.312 67.8 100.54 68.72 99.4839 69.376C98.4359 70.032 97.2879 70.36 96.0399 70.36ZM91.7439 64.432V62.008H100.336V64.432H91.7439Z" fill="black"/>
</svg>
