<svg width="22" height="22" viewBox="0 0 22 22" fill="none" xmlns="http://www.w3.org/2000/svg">
<path d="M12.6602 15.107C12.6199 15.0671 12.5655 15.0447 12.5088 15.0447C12.4522 15.0447 12.3978 15.0671 12.3575 15.107L9.24499 18.2195C7.80392 19.6605 5.37178 19.8132 3.78071 18.2195C2.18696 16.6257 2.33963 14.1963 3.78071 12.7552L6.89321 9.64269C6.97624 9.55965 6.97624 9.42305 6.89321 9.34001L5.82713 8.27394C5.78686 8.23406 5.73247 8.21169 5.6758 8.21169C5.61912 8.21169 5.56473 8.23406 5.52446 8.27394L2.41196 11.3864C0.145884 13.6525 0.145884 17.3195 2.41196 19.5829C4.67803 21.8463 8.34499 21.8489 10.6084 19.5829L13.7209 16.4704C13.8039 16.3873 13.8039 16.2507 13.7209 16.1677L12.6602 15.107ZM19.587 2.41055C17.3209 0.144475 13.6539 0.144475 11.3905 2.41055L8.27535 5.52305C8.23547 5.56332 8.2131 5.61771 8.2131 5.67439C8.2131 5.73106 8.23547 5.78545 8.27535 5.82573L9.33874 6.88912C9.42178 6.97215 9.55838 6.97215 9.64142 6.88912L12.7539 3.77662C14.195 2.33555 16.6271 2.18287 18.2182 3.77662C19.812 5.37037 19.6593 7.79983 18.2182 9.24091L15.1057 12.3534C15.0658 12.3937 15.0435 12.4481 15.0435 12.5047C15.0435 12.5614 15.0658 12.6158 15.1057 12.6561L16.1718 13.7222C16.2548 13.8052 16.3914 13.8052 16.4745 13.7222L19.587 10.6097C21.8503 8.34358 21.8503 4.67662 19.587 2.41055ZM13.6271 7.25608C13.5869 7.2162 13.5325 7.19383 13.4758 7.19383C13.4191 7.19383 13.3647 7.2162 13.3245 7.25608L7.25749 13.3204C7.21761 13.3606 7.19524 13.415 7.19524 13.4717C7.19524 13.5284 7.21761 13.5828 7.25749 13.623L8.31821 14.6838C8.40124 14.7668 8.53785 14.7668 8.62089 14.6838L14.6852 8.61948C14.7682 8.53644 14.7682 8.39983 14.6852 8.3168L13.6271 7.25608Z" fill="#626F86" fill-opacity="0.85"/>
</svg>
