<svg width="18" height="22" viewBox="0 0 18 22" fill="none" xmlns="http://www.w3.org/2000/svg">
<path d="M9 6.66406C8.29922 6.66406 7.64062 6.93594 7.14375 7.43281C6.89959 7.67628 6.70597 7.96561 6.57404 8.28418C6.44211 8.60275 6.37446 8.94426 6.375 9.28906C6.375 9.98984 6.64922 10.6484 7.14375 11.1453C7.38721 11.3895 7.67655 11.5831 7.99512 11.715C8.31369 11.847 8.6552 11.9146 9 11.9141C9.70078 11.9141 10.3594 11.6398 10.8563 11.1453C11.3531 10.6484 11.625 9.98984 11.625 9.28906C11.625 8.58828 11.3531 7.92969 10.8563 7.43281C10.3594 6.93594 9.70078 6.66406 9 6.66406ZM17.0297 5.77578C16.5884 4.75831 15.9523 3.83708 15.157 3.06406C14.3592 2.28406 13.4186 1.66498 12.3867 1.24062C11.3133 0.795312 10.1742 0.570312 9 0.570312C7.82578 0.570312 6.68672 0.795313 5.61328 1.23828C4.575 1.66719 3.64453 2.28125 2.84297 3.06172C2.04826 3.83517 1.41215 4.7563 0.970312 5.77344C0.513281 6.82812 0.28125 7.94844 0.28125 9.10156C0.28125 10.7563 0.677344 12.4039 1.45547 13.993C2.08125 15.2703 2.95547 16.5148 4.05703 17.6984C5.93906 19.7188 7.9125 20.9539 8.47266 21.2844C8.63166 21.3783 8.813 21.4277 8.99766 21.4273C9.18047 21.4273 9.36094 21.3805 9.52266 21.2844C10.0828 20.9539 12.0563 19.7188 13.9383 17.6984C15.0398 16.5172 15.9141 15.2703 16.5398 13.993C17.3227 12.4062 17.7188 10.7609 17.7188 9.10391C17.7188 7.95078 17.4867 6.83047 17.0297 5.77578ZM9 13.4141C6.72188 13.4141 4.875 11.5672 4.875 9.28906C4.875 7.01094 6.72188 5.16406 9 5.16406C11.2781 5.16406 13.125 7.01094 13.125 9.28906C13.125 11.5672 11.2781 13.4141 9 13.4141Z" fill="#626F86" fill-opacity="0.85"/>
</svg>
