<svg width="50" height="50" viewBox="0 0 50 50" fill="none" xmlns="http://www.w3.org/2000/svg">
<path fill-rule="evenodd" clip-rule="evenodd" d="M45.8334 25C45.8334 36.5059 36.506 45.8333 25.0001 45.8333C13.4941 45.8333 4.16675 36.5059 4.16675 25C4.16675 13.4941 13.4941 4.16666 25.0001 4.16666C36.506 4.16666 45.8334 13.4941 45.8334 25ZM20.9923 19.5329C21.0975 19.7845 21.2517 20.0127 21.4459 20.2041L26.2938 25.0104L21.4647 29.7958C21.2705 29.9873 21.1163 30.2155 21.011 30.4671C20.9058 30.7187 20.8516 30.9887 20.8516 31.2614C20.8516 31.5342 20.9058 31.8042 21.011 32.0558C21.1163 32.3074 21.2705 32.5356 21.4647 32.7271C21.8585 33.1164 22.39 33.3347 22.9438 33.3347C23.4976 33.3347 24.0291 33.1164 24.423 32.7271L30.5793 26.6229C30.7922 26.4118 30.9611 26.1606 31.0765 25.8838C31.1918 25.6071 31.2512 25.3102 31.2512 25.0104C31.2512 24.7106 31.1918 24.4137 31.0765 24.1369C30.9611 23.8602 30.7922 23.609 30.5793 23.3979L24.4022 17.2729C24.0084 16.8842 23.4773 16.6663 22.924 16.6663C22.3707 16.6663 21.8397 16.8842 21.4459 17.2729C21.2517 17.4644 21.0975 17.6926 20.9923 17.9442C20.887 18.1958 20.8328 18.4658 20.8328 18.7385C20.8328 19.0113 20.887 19.2813 20.9923 19.5329Z" fill="#44546F"/>
</svg>
